#!OML:ASF H:\ManfredETheater\Project 1\Capture day 1\Session 1\subject.ASF
:FULLY-SPECIFIED
:DEGREES
62
root 2.82184 15.6466 3.98948 -155.172 1.95299 -176.237
lowerback 19.4744 0.332189 3.55284
upperback -1.15216 1.77254 2.52243
thorax -12.2625 0.773073 0.241927
lowerneck -24.1201 -1.90718 -1.57029
upperneck -2.15493 -0.767207 -0.952775
head 3.02406 0.108756 -0.0933511
rclavicle -1.59028e-015 -1.63003e-014
rhumerus -30.3607 16.2879 -92.9899
rradius 103.388
rwrist -16.0017
rhand -26.7827 10.1013
rfingers 7.12502
rthumb -0.21025 -19.8783
lclavicle -1.59028e-015 -1.63003e-014
lhumerus -69.3886 -11.6473 93.3811
lradius 95.7036
lwrist 20.5314
lhand -21.1517 -13.276
lfingers 7.12502
lthumb 5.2279 16.6395
rfemur -25.8891 -7.87403 29.8346
rtibia 58.4981
rfoot -29.5752 -12.1352
rtoes -46.022
lfemur -67.3416 3.58887 -18.1668
ltibia 104.618
lfoot -6.50283 -5.2025
ltoes 20.0008
63
root 2.87588 15.6887 3.27555 -155.103 1.72199 -176.216
lowerback 18.866 0.582001 3.65279
upperback -1.1757 2.0502 2.30015
thorax -11.9193 0.88607 -0.133246
lowerneck -24.1681 -2.35568 -1.65313
upperneck -2.10378 -1.33829 -0.714304
head 3.04899 -0.156478 -0.0572634
rclavicle 2.16675e-014 5.48646e-014
rhumerus -29.8847 17.6168 -92.9757
rradius 107.948
rwrist -14.9718
rhand -26.2079 10.7444
rfingers 7.12502
rthumb 0.344961 -19.2351
lclavicle 2.16675e-014 5.48646e-014
lhumerus -72.7893 -12.1229 93.6622
lradius 98.1629
lwrist 21.7207
lhand -20.4334 -12.8103
lfingers 7.12502
lthumb 5.92139 17.087
rfemur -21.8692 -8.12157 29.3023
rtibia 55.2353
rfoot -27.3895 -9.96293
rtoes -46.4844
lfemur -70.1452 3.51068 -18.3119
ltibia 102.691
lfoot -8.04422 -6.31745
ltoes 18.777
64
root 2.92855 15.7354 2.54816 -155.092 1.46461 -176.172
lowerback 18.1816 0.853595 3.75875
upperback -1.14778 2.35879 2.10176
thorax -11.4703 1.02057 -0.484776
lowerneck -24.1398 -1.28162 -2.46117
upperneck -2.05156 -2.29879 -0.521004
head 3.06466 -1.71959 -0.0151498
rclavicle 2.18663e-015 6.36111e-015
rhumerus -29.4892 18.9081 -92.716
rradius 112.338
rwrist -13.8247
rhand -25.6555 11.4648
rfingers 7.12502
rthumb 0.878431 -18.5132
lclavicle 2.18663e-015 6.36111e-015
lhumerus -75.8807 -12.3945 93.8429
lradius 100.295
lwrist 22.3761
lhand -19.9057 -12.4247
lfingers 7.12502
lthumb 6.43087 17.4577
rfemur -17.7219 -8.17136 28.7547
rtibia 51.6151
rfoot -24.1648 -7.31117
rtoes -46.4864
lfemur -72.5125 3.43581 -18.4736
ltibia 100.238
lfoot -9.34358 -7.52995
ltoes 17.6065
65
root 2.97954 15.7861 1.8082 -155.149 1.15503 -176.08
lowerback 17.4447 1.12044 3.89441
upperback -1.06915 2.6722 1.94685
thorax -10.9325 1.16453 -0.795595
lowerneck -24.1071 -1.73139 -2.58894
upperneck -2.00112 -2.84559 -0.293615
head 3.08412 -1.96695 0.0265438
rclavicle 2.04748e-014 -1.15295e-014
rhumerus -29.1678 20.1464 -92.2528
rradius 116.47
rwrist -12.7147
rhand -25.1349 12.2244
rfingers 7.12502
rthumb 1.38124 -17.7509
lclavicle 2.04748e-014 -1.15295e-014
lhumerus -78.6463 -12.4348 93.91
lradius 102.076
lwrist 22.5906
lhand -19.587 -12.2014
lfingers 7.12502
lthumb 6.7385 17.6714
rfemur -13.4674 -7.97327 28.2567
rtibia 47.6217
rfoot -19.427 -4.46969
rtoes -45.8712
lfemur -74.4424 3.37258 -18.627
ltibia 97.322
lfoot -10.4123 -8.80048
ltoes 16.5757
66
root 3.02839 15.84 1.0578 -155.275 0.773936 -175.927
lowerback 16.6906 1.36061 4.08077
upperback -0.952538 2.96784 1.84617
thorax -10.3424 1.30597 -1.06052
lowerneck -24.0385 -2.14816 -2.71201
upperneck -1.92381 -3.34371 -0.0847344
head 3.1082 -2.18889 0.0661552
rclavicle 3.18055e-014 1.98785e-015
rhumerus -28.9259 21.3197 -91.6435
rradius 120.244
rwrist -11.7841
rhand -24.6923 12.9581
rfingers 7.12502
rthumb 1.80876 -17.014
lclavicle 3.18055e-014 1.98785e-015
lhumerus -81.0824 -12.2443 93.8648
lradius 103.528
lwrist 22.4861
lhand -19.4655 -12.0875
lfingers 7.12502
lthumb 6.85584 17.7815
rfemur -9.13176 -7.4982 27.8817
rtibia 43.2678
rfoot -12.7832 -1.99252
rtoes -44.2304
lfemur -75.9545 3.31453 -18.7657
ltibia 94.002
lfoot -11.252 -10.0623
ltoes 15.7761
67
root 3.07437 15.8952 0.299917 -155.477 0.314959 -175.712
lowerback 15.9743 1.55978 4.33626
upperback -0.811682 3.23164 1.79983
thorax -9.74804 1.43586 -1.28974
lowerneck -23.9528 -2.52512 -2.82647
upperneck -1.78965 -3.7828 0.108748
head 3.14833 -2.37936 0.104476
rclavicle 5.00937e-014 2.46493e-014
rhumerus -28.7711 22.3973 -90.9489
rradius 123.559
rwrist -11.1724
rhand -24.3691 13.6154
rfingers 7.12502
rthumb 2.12086 -16.3538
lclavicle 5.00937e-014 2.46493e-014
lhumerus -83.182 -11.8516 93.7162
lradius 104.692
lwrist 22.2022
lhand -19.5197 -12.0375
lfingers 7.12502
lthumb 6.80353 17.8332
rfemur -4.76289 -6.71973 27.6952
rtibia 38.6389
rfoot -4.44387 -0.515645
rtoes -41.3981
lfemur -77.0695 3.24756 -18.8909
ltibia 90.3521
lfoot -11.8999 -11.2618
ltoes 15.1332
68
root 3.11787 15.9496 -0.461469 -155.727 -0.222098 -175.448
lowerback 15.3202 1.71236 4.65286
upperback -0.666748 3.45333 1.80322
thorax -9.18683 1.54779 -1.48517
lowerneck -23.8622 -2.86485 -2.93083
upperneck -1.59197 -4.16727 0.281863
head 3.2078 -2.54118 0.138964
rclavicle 6.36111e-014 2.82274e-014
rhumerus -28.6908 23.3484 -90.2131
rradius 126.313
rwrist -10.9822
rhand -24.1772 14.149
rfingers 7.12502
rthumb 2.30618 -15.8183
lclavicle 6.36111e-014 2.82274e-014
lhumerus -84.9268 -11.2961 93.4774
lradius 105.616
lwrist 21.8509
lhand -19.6874 -12.0451
lfingers 7.12502
lthumb 6.6416 17.8307
rfemur -0.432607 -5.59546 27.7651
rtibia 33.8306
rfoot 4.75269 -0.43056
rtoes -37.7593
lfemur -77.8552 3.15659 -19.0154
ltibia 86.4353
lfoot -12.3783 -12.346
ltoes 14.6941
69
root 3.15919 15.9886 -1.21791 -156.001 -0.85031 -175.148
lowerback 14.7581 1.81212 5.03277
upperback -0.534499 3.62499 1.84872
thorax -8.69402 1.6357 -1.65906
lowerneck -23.7998 -3.17266 -3.05016
upperneck -1.31125 -4.49827 0.463543
head 3.29804 -2.67332 0.181586
rclavicle 4.85035e-014 1.43125e-014
rhumerus -28.6756 24.1309 -89.4794
rradius 128.416
rwrist -11.2334
rhand -24.0988 14.5187
rfingers 7.12502
rthumb 2.38198 -15.4477
lclavicle 4.85035e-014 1.43125e-014
lhumerus -86.3004 -10.6293 93.1636
lradius 106.365
lwrist 21.5021
lhand -19.8993 -12.1018
lfingers 7.12502
lthumb 6.43701 17.7804
rfemur 3.76535 -4.12487 28.1651
rtibia 29.0516
rfoot 13.5256 -1.3401
rtoes -33.9107
lfemur -78.4587 3.01411 -19.1442
ltibia 82.3715
lfoot -12.6501 -13.2608
ltoes 14.6064
